<svg width="17" height="17" viewBox="0 0 17 17" fill="none" xmlns="http://www.w3.org/2000/svg">
<path d="M4.14377 12.1125C4.74585 11.6521 5.41877 11.2891 6.16252 11.0234C6.90627 10.7578 7.68544 10.625 8.50002 10.625C9.3146 10.625 10.0938 10.7578 10.8375 11.0234C11.5813 11.2891 12.2542 11.6521 12.8563 12.1125C13.2695 11.6285 13.5912 11.0795 13.8214 10.4656C14.0516 9.85174 14.1667 9.19653 14.1667 8.5C14.1667 6.92986 13.6148 5.59288 12.511 4.48906C11.4071 3.38524 10.0702 2.83333 8.50002 2.83333C6.92988 2.83333 5.5929 3.38524 4.48908 4.48906C3.38526 5.59288 2.83335 6.92986 2.83335 8.5C2.83335 9.19653 2.94846 9.85174 3.17867 10.4656C3.40887 11.0795 3.73058 11.6285 4.14377 12.1125ZM8.50002 9.20833C7.80349 9.20833 7.21617 8.96927 6.73804 8.49115C6.25992 8.01302 6.02085 7.4257 6.02085 6.72917C6.02085 6.03264 6.25992 5.44531 6.73804 4.96719C7.21617 4.48906 7.80349 4.25 8.50002 4.25C9.19655 4.25 9.78387 4.48906 10.262 4.96719C10.7401 5.44531 10.9792 6.03264 10.9792 6.72917C10.9792 7.4257 10.7401 8.01302 10.262 8.49115C9.78387 8.96927 9.19655 9.20833 8.50002 9.20833ZM8.50002 15.5833C7.52016 15.5833 6.59933 15.3974 5.73752 15.0255C4.87571 14.6536 4.12606 14.149 3.48856 13.5115C2.85106 12.874 2.34637 12.1243 1.9745 11.2625C1.60262 10.4007 1.41669 9.47986 1.41669 8.5C1.41669 7.52014 1.60262 6.59931 1.9745 5.7375C2.34637 4.8757 2.85106 4.12604 3.48856 3.48854C4.12606 2.85104 4.87571 2.34636 5.73752 1.97448C6.59933 1.60261 7.52016 1.41667 8.50002 1.41667C9.47988 1.41667 10.4007 1.60261 11.2625 1.97448C12.1243 2.34636 12.874 2.85104 13.5115 3.48854C14.149 4.12604 14.6537 4.8757 15.0255 5.7375C15.3974 6.59931 15.5834 7.52014 15.5834 8.5C15.5834 9.47986 15.3974 10.4007 15.0255 11.2625C14.6537 12.1243 14.149 12.874 13.5115 13.5115C12.874 14.149 12.1243 14.6536 11.2625 15.0255C10.4007 15.3974 9.47988 15.5833 8.50002 15.5833Z" fill="#B8C5D3"/>
</svg>
