<svg width="19" height="19" viewBox="0 0 19 19" fill="none" xmlns="http://www.w3.org/2000/svg">
<path d="M6.64998 13.4583L9.49998 10.6083L12.35 13.4583L13.4583 12.35L10.6083 9.5L13.4583 6.65L12.35 5.54167L9.49998 8.39167L6.64998 5.54167L5.54165 6.65L8.39165 9.5L5.54165 12.35L6.64998 13.4583ZM9.49998 17.4167C8.40484 17.4167 7.37567 17.2089 6.41248 16.7932C5.44929 16.3776 4.61144 15.8135 3.89894 15.101C3.18644 14.3885 2.62238 13.5507 2.20675 12.5875C1.79113 11.6243 1.58331 10.5951 1.58331 9.5C1.58331 8.40486 1.79113 7.37569 2.20675 6.4125C2.62238 5.4493 3.18644 4.61146 3.89894 3.89896C4.61144 3.18646 5.44929 2.62239 6.41248 2.20677C7.37567 1.79114 8.40484 1.58333 9.49998 1.58333C10.5951 1.58333 11.6243 1.79114 12.5875 2.20677C13.5507 2.62239 14.3885 3.18646 15.101 3.89896C15.8135 4.61146 16.3776 5.4493 16.7932 6.4125C17.2088 7.37569 17.4166 8.40486 17.4166 9.5C17.4166 10.5951 17.2088 11.6243 16.7932 12.5875C16.3776 13.5507 15.8135 14.3885 15.101 15.101C14.3885 15.8135 13.5507 16.3776 12.5875 16.7932C11.6243 17.2089 10.5951 17.4167 9.49998 17.4167ZM9.49998 15.8333C11.268 15.8333 12.7656 15.2198 13.9927 13.9927C15.2198 12.7656 15.8333 11.2681 15.8333 9.5C15.8333 7.73194 15.2198 6.23437 13.9927 5.00729C12.7656 3.78021 11.268 3.16667 9.49998 3.16667C7.73192 3.16667 6.23435 3.78021 5.00727 5.00729C3.78019 6.23437 3.16665 7.73194 3.16665 9.5C3.16665 11.2681 3.78019 12.7656 5.00727 13.9927C6.23435 15.2198 7.73192 15.8333 9.49998 15.8333Z" fill="#B8C5D3"/>
</svg>
