<svg width="26" height="26" viewBox="0 0 26 26" fill="none" xmlns="http://www.w3.org/2000/svg">
<path d="M4.33334 20.5833V18.4167H6.50001V10.8333C6.50001 9.33471 6.9514 8.00763 7.85418 6.85207C8.75695 5.67846 9.93057 4.9111 11.375 4.54999V3.79166C11.375 3.34027 11.5285 2.9611 11.8354 2.65416C12.1604 2.32916 12.5486 2.16666 13 2.16666C13.4514 2.16666 13.8306 2.32916 14.1375 2.65416C14.4625 2.9611 14.625 3.34027 14.625 3.79166V4.54999C16.0695 4.9111 17.2431 5.67846 18.1458 6.85207C19.0486 8.00763 19.5 9.33471 19.5 10.8333V18.4167H21.6667V20.5833H4.33334ZM13 23.8333C12.4042 23.8333 11.8896 23.6257 11.4563 23.2104C11.041 22.7771 10.8333 22.2625 10.8333 21.6667H15.1667C15.1667 22.2625 14.95 22.7771 14.5167 23.2104C14.1014 23.6257 13.5958 23.8333 13 23.8333ZM8.66668 18.4167H17.3333V10.8333C17.3333 9.64165 16.909 8.62152 16.0604 7.77291C15.2118 6.92429 14.1917 6.49999 13 6.49999C11.8083 6.49999 10.7882 6.92429 9.93959 7.77291C9.09098 8.62152 8.66668 9.64165 8.66668 10.8333V18.4167Z" fill="#545454"/>
</svg>
