<svg width="19" height="19" viewBox="0 0 19 19" fill="none" xmlns="http://www.w3.org/2000/svg">
<path d="M10.2422 13.3594C10.2422 13.5062 10.1987 13.6497 10.1171 13.7717C10.0356 13.8938 9.91964 13.9889 9.78403 14.0451C9.64841 14.1012 9.49918 14.1159 9.35521 14.0873C9.21124 14.0587 9.07899 13.988 8.9752 13.8842C8.8714 13.7804 8.80071 13.6481 8.77208 13.5042C8.74344 13.3602 8.75814 13.211 8.81431 13.0754C8.87049 12.9397 8.96561 12.8238 9.08767 12.7423C9.20972 12.6607 9.35321 12.6172 9.5 12.6172C9.69684 12.6172 9.88562 12.6954 10.0248 12.8346C10.164 12.9738 10.2422 13.1625 10.2422 13.3594ZM9.5 5.49219C7.94141 5.49219 6.67969 6.62402 6.67969 8.01562V8.3125C6.67969 8.4306 6.72661 8.54387 6.81012 8.62738C6.89363 8.7109 7.0069 8.75781 7.125 8.75781C7.24311 8.75781 7.35637 8.7109 7.43989 8.62738C7.5234 8.54387 7.57032 8.4306 7.57032 8.3125V8.01562C7.57032 7.11535 8.43571 6.38281 9.5 6.38281C10.5643 6.38281 11.4297 7.11535 11.4297 8.01562C11.4297 8.9159 10.5643 9.64844 9.5 9.64844C9.3819 9.64844 9.26863 9.69535 9.18512 9.77887C9.10161 9.86238 9.05469 9.97565 9.05469 10.0938V10.6875C9.05469 10.8056 9.10161 10.9189 9.18512 11.0024C9.26863 11.0859 9.3819 11.1328 9.5 11.1328C9.61811 11.1328 9.73137 11.0859 9.81489 11.0024C9.8984 10.9189 9.94532 10.8056 9.94532 10.6875V10.5079C11.2894 10.3164 12.3203 9.27141 12.3203 8.01562C12.3203 6.62402 11.0586 5.49219 9.5 5.49219ZM17.0703 9.5C17.0703 10.9973 16.6263 12.4609 15.7945 13.7058C14.9627 14.9508 13.7803 15.9211 12.397 16.4941C11.0137 17.067 9.49161 17.217 8.02311 16.9249C6.55461 16.6327 5.20571 15.9117 4.14698 14.853C3.08826 13.7943 2.36725 12.4454 2.07515 10.9769C1.78305 9.5084 1.93297 7.98626 2.50595 6.60297C3.07893 5.21967 4.04923 4.03735 5.29416 3.20552C6.53909 2.37368 8.00274 1.92969 9.5 1.92969C11.5071 1.93204 13.4312 2.73039 14.8504 4.14958C16.2696 5.56878 17.068 7.49295 17.0703 9.5ZM16.1797 9.5C16.1797 8.17888 15.7879 6.88743 15.054 5.78896C14.32 4.6905 13.2768 3.83434 12.0562 3.32877C10.8357 2.8232 9.49259 2.69092 8.19686 2.94866C6.90113 3.2064 5.71092 3.84258 4.77675 4.77675C3.84258 5.71092 3.2064 6.90113 2.94866 8.19686C2.69093 9.49259 2.82321 10.8357 3.32878 12.0562C3.83435 13.2768 4.6905 14.32 5.78897 15.054C6.88744 15.7879 8.17889 16.1797 9.5 16.1797C11.271 16.1777 12.9688 15.4733 14.2211 14.2211C15.4733 12.9688 16.1777 11.271 16.1797 9.5Z" fill="#DADADA"/>
</svg>
