<svg width="16" height="16" viewBox="0 0 16 16" fill="none" xmlns="http://www.w3.org/2000/svg">
<path fill-rule="evenodd" clip-rule="evenodd" d="M1.87398 11.1531C1.87398 11.1531 1.87398 11.1531 1.87398 11.1534C1.87398 11.1531 1.87398 11.1531 1.87398 11.1531ZM1.88707 11.1721V11.1754C1.88707 11.1757 1.88707 11.1757 1.88707 11.1757C1.88707 11.1757 1.88707 11.1744 1.88707 11.1721ZM6.56996 14.3739C7.223 14.4763 7.91213 14.4763 8.56517 14.3739V13.2532C8.56517 12.9648 8.75222 12.7103 9.02788 12.6252C9.72686 12.4097 10.3635 12.0419 10.9181 11.5321C11.1281 11.337 11.4431 11.3028 11.6925 11.448L12.6639 12.0159C12.8542 11.7847 13.0249 11.541 13.1791 11.2871C13.2185 11.2174 13.2611 11.1426 13.3071 11.0673C13.4449 10.8184 13.5696 10.5582 13.6746 10.2909L12.7 9.72266C12.4539 9.57748 12.3259 9.28713 12.3915 9.00664C12.4801 8.6253 12.5261 8.24693 12.5261 7.88169C12.5261 7.52499 12.4834 7.15581 12.3981 6.78499C12.3357 6.50416 12.4637 6.21447 12.7131 6.07094L13.6878 5.50961C13.5762 5.21499 13.4384 4.92793 13.2808 4.65203C13.2776 4.64743 13.2644 4.62148 13.2611 4.61688C13.2546 4.60572 13.2415 4.58437 13.2349 4.57254C13.0741 4.2973 12.8936 4.03191 12.6901 3.77999L11.7155 4.34131C11.4661 4.48485 11.1511 4.44904 10.9411 4.25263C10.3897 3.73959 9.72686 3.35399 9.02788 3.13819C8.75222 3.05313 8.56517 2.79858 8.56517 2.5102V1.38985C7.91213 1.28737 7.223 1.28737 6.56996 1.38985V2.5102C6.56996 2.79858 6.37962 3.05313 6.10397 3.13819C5.40499 3.35399 4.76836 3.72185 4.21705 4.23161C4.00375 4.42671 3.68871 4.46087 3.43931 4.31569L2.46796 3.7478C2.2809 3.97903 2.11026 4.22307 1.95603 4.47663C1.75913 4.79425 1.59505 5.12762 1.4605 5.47283L2.43186 6.04105C2.68126 6.18622 2.80596 6.47657 2.74033 6.75707C2.65173 7.1384 2.60906 7.51678 2.60906 7.88169C2.60906 8.23872 2.65173 8.6079 2.73377 8.97872C2.79612 9.25954 2.67141 9.54924 2.42201 9.69277L1.4441 10.2541C1.54254 10.504 1.6574 10.754 1.78866 11.0013L1.88383 11.1682C1.88711 11.1757 1.89367 11.1836 1.89696 11.1912C2.05775 11.4664 2.24152 11.7318 2.4417 11.9837L3.41962 11.4224C3.66902 11.2789 3.98077 11.3147 4.19408 11.5111C4.74211 12.0241 5.40499 12.4097 6.10397 12.6252C6.37962 12.7103 6.56996 12.9648 6.56996 13.2532V14.3739ZM7.56754 15.7645C6.9506 15.7645 6.3435 15.6926 5.7561 15.5504C5.46403 15.4788 5.25729 15.2153 5.25729 14.9122V13.7173C4.68958 13.491 4.15467 13.178 3.669 12.7933L2.62873 13.3921C2.3662 13.5439 2.03148 13.4943 1.82474 13.2722C1.4211 12.8416 1.06669 12.3696 0.774624 11.8688C0.758216 11.8451 0.741808 11.8195 0.728682 11.7886L0.633515 11.6273C0.370987 11.1337 0.164246 10.6344 0.0198556 10.1372C-0.0654661 9.84582 0.0625164 9.53478 0.325045 9.38369L1.36203 8.78591C1.31937 8.48176 1.2964 8.17926 1.2964 7.88168C1.2964 7.57294 1.31937 7.25828 1.36859 6.94133L0.331608 6.33566C0.0690796 6.1826 -0.0523397 5.86926 0.032982 5.57825C0.223315 4.95058 0.492406 4.34985 0.833693 3.79312C1.12247 3.31555 1.46704 2.86459 1.85755 2.45501C2.06758 2.23462 2.39902 2.18667 2.66155 2.34038L3.70181 2.94604C4.17765 2.56865 4.69942 2.26714 5.25729 2.04576V0.85151C5.25729 0.54835 5.46403 0.284932 5.7561 0.213329C6.92763 -0.0711097 8.20745 -0.0711097 9.3757 0.213329C9.67105 0.284932 9.87779 0.54835 9.87779 0.85151V2.04642C10.4422 2.27272 10.9804 2.58541 11.4628 2.97035L12.5031 2.37158C12.7689 2.21951 13.1003 2.26943 13.3103 2.49147C13.714 2.92305 14.0684 3.39602 14.3605 3.8979C14.3801 3.92877 14.3998 3.96063 14.4162 3.99216C14.7149 4.5144 14.9479 5.06127 15.1119 5.62555C15.1973 5.91689 15.0726 6.22859 14.81 6.38L13.7698 6.97779C13.8157 7.28193 13.8387 7.58443 13.8387 7.88168C13.8387 8.19076 13.8124 8.50541 13.7632 8.82237L14.8002 9.42803C15.0627 9.58109 15.1874 9.89378 15.0988 10.1845C14.9413 10.7142 14.7214 11.2296 14.4458 11.717C14.3966 11.805 14.3506 11.8865 14.3014 11.965C14.0093 12.4481 13.6648 12.8994 13.2775 13.3084C13.0675 13.5291 12.7328 13.5764 12.4703 13.423L11.4333 12.8177C10.9542 13.195 10.4357 13.4966 9.87779 13.7179V14.9122C9.87779 15.2153 9.67105 15.4788 9.3757 15.5504C8.79158 15.6926 8.1812 15.7645 7.56754 15.7645Z" fill="#B8C5D3"/>
<path fill-rule="evenodd" clip-rule="evenodd" d="M7.56754 6.25323C6.66838 6.25323 5.93987 6.98403 5.93987 7.88169C5.93987 8.77967 6.66838 9.51048 7.56754 9.51048C8.46342 9.51048 9.19522 8.77967 9.19522 7.88169C9.19522 6.98403 8.46342 6.25323 7.56754 6.25323ZM7.56754 10.4958C6.12692 10.4958 4.95538 9.32326 4.95538 7.88169C4.95538 6.44045 6.12692 5.26787 7.56754 5.26787C9.00816 5.26787 10.1797 6.44045 10.1797 7.88169C10.1797 9.32326 9.00816 10.4958 7.56754 10.4958Z" fill="#B8C5D3"/>
</svg>
