<svg width="16" height="17" viewBox="0 0 16 17" fill="none" xmlns="http://www.w3.org/2000/svg">
<path fill-rule="evenodd" clip-rule="evenodd" d="M2.64668 12.4059H3.57587V10.0588H2.64668V12.4059ZM4.23278 13.7471H1.98979C1.62685 13.7471 1.33289 13.4487 1.33289 13.0765V9.38824C1.33289 9.01942 1.62685 8.71765 1.98979 8.71765H4.23278C4.59539 8.71765 4.88969 9.01942 4.88969 9.38824V13.0765C4.88969 13.4487 4.59539 13.7471 4.23278 13.7471Z" fill="#B8C5D3"/>
<path fill-rule="evenodd" clip-rule="evenodd" d="M7.43715 12.4059H8.36634V5.70001H7.43715V12.4059ZM9.02325 13.7471H6.78025C6.41764 13.7471 6.12335 13.4487 6.12335 13.0765V5.02942C6.12335 4.6606 6.41764 4.35883 6.78025 4.35883H9.02325C9.38619 4.35883 9.68015 4.6606 9.68015 5.02942V13.0765C9.68015 13.4487 9.38619 13.7471 9.02325 13.7471Z" fill="#B8C5D3"/>
<path fill-rule="evenodd" clip-rule="evenodd" d="M12.2279 12.4059H13.1571V1.34119H12.2279V12.4059ZM13.814 13.7471H11.571C11.2084 13.7471 10.9141 13.4487 10.9141 13.0765V0.670596C10.9141 0.301772 11.2084 7.62939e-06 11.571 7.62939e-06H13.814C14.1766 7.62939e-06 14.4709 0.301772 14.4709 0.670596V13.0765C14.4709 13.4487 14.1766 13.7471 13.814 13.7471Z" fill="#B8C5D3"/>
<path fill-rule="evenodd" clip-rule="evenodd" d="M15.1279 16.0941H0.676007C0.313396 16.0941 0.019104 15.7957 0.019104 15.4235C0.019104 15.0547 0.313396 14.7529 0.676007 14.7529H15.1279C15.4905 14.7529 15.7848 15.0547 15.7848 15.4235C15.7848 15.7957 15.4905 16.0941 15.1279 16.0941Z" fill="#B8C5D3"/>
</svg>
